<?xml version="1.0" encoding="UTF-8"?>
<svg xmlns="http://www.w3.org/2000/svg" version="1.1" xmlns:cc="http://creativecommons.org/ns#" xmlns:dc="http://purl.org/dc/elements/1.1/" xmlns:inkscape="http://www.inkscape.org/namespaces/inkscape" xmlns:rdf="http://www.w3.org/1999/02/22-rdf-syntax-ns#" xmlns:sodipodi="http://sodipodi.sourceforge.net/DTD/sodipodi-0.dtd" xmlns:svg="http://www.w3.org/2000/svg" viewBox="0 0 76 76">
  <!-- Generator: Adobe Illustrator 29.3.0, SVG Export Plug-In . SVG Version: 2.1.0 Build 146)  -->
  <defs>
    <style>
      .st0 {
        fill: #aaa;
      }
    </style>
  </defs>
  <g id="svg2" inkscape:version="0.48.5 r10040">
    <sodipodi:namedview id="namedview6" bordercolor="#AAAAAA" borderopacity="1" gridtolerance="10" guidetolerance="10" inkscape:current-layer="svg2" inkscape:cx="38" inkscape:cy="38" inkscape:pageopacity="0" inkscape:pageshadow="2" inkscape:window-height="743" inkscape:window-maximized="0" inkscape:window-width="1298" inkscape:window-x="0" inkscape:window-y="0" inkscape:zoom="3.1052632" objecttolerance="10" pagecolor="#AAAAAA" showgrid="false"/>
    <path id="path4" class="st0" d="M37.6,59.6c4,0,7.2,3.2,7.2,7.2s-3.2,7.2-7.2,7.2-7.2-3.2-7.2-7.2,3.2-7.2,7.2-7.2ZM39,2c12.7,0,23,8.2,23,20.2s-2.9,11.5-8.6,14.4c-5.8,2.9-8.6,6.7-8.6,11.5v5.8h-14.4v-4.3c0-9.8,8.6-15.8,11.5-18.7,5.8-5.8,5.8-6.6,5.8-8.6,0-4.8-3.9-8.6-8.6-8.6s-8.6,3.9-8.6,8.6v4.3h-14.4v-2.9c0-11.9,10.3-21.6,23-21.6Z" inkscape:connector-curvature="0"/>
  </g>
</svg>