<?xml version="1.0" encoding="utf-8"?>
<!-- Generator: Adobe Illustrator 27.9.0, SVG Export Plug-In . SVG Version: 6.00 Build 0)  -->
<svg version="1.1"
	 id="svg2" xmlns:cc="http://creativecommons.org/ns#" xmlns:dc="http://purl.org/dc/elements/1.1/" xmlns:rdf="http://www.w3.org/1999/02/22-rdf-syntax-ns#" xmlns:inkscape="http://www.inkscape.org/namespaces/inkscape" xmlns:sodipodi="http://sodipodi.sourceforge.net/DTD/sodipodi-0.dtd" xmlns:svg="http://www.w3.org/2000/svg"
	 xmlns="http://www.w3.org/2000/svg" xmlns:xlink="http://www.w3.org/1999/xlink" x="0px" y="0px" viewBox="0 0 76 76"
	 style="enable-background:new 0 0 76 76;" xml:space="preserve">
<sodipodi:namedview  bordercolor="#666666" borderopacity="1" gridtolerance="10" guidetolerance="10" id="namedview6" inkscape:current-layer="svg2" inkscape:cx="38" inkscape:cy="38" inkscape:pageopacity="0" inkscape:pageshadow="2" inkscape:window-height="780" inkscape:window-maximized="0" inkscape:window-width="1448" inkscape:window-x="0" inkscape:window-y="0" inkscape:zoom="3.1052632" objecttolerance="10" pagecolor="#ffffff" showgrid="false">
	</sodipodi:namedview>
<path id="path4" inkscape:connector-curvature="0" d="M8.9,12.7v51.4h8.6V71L2,71V5.9h15.4v6.9C17.4,12.7,8.9,12.7,8.9,12.7z
	 M19.1,53.9H26v10.3h41.1V33.3H46.6V12.7H26v30.9h-6.9V5.9h34.7L74,26v45H19.1V53.9z M10.6,45.3h30.9L29.4,35h10.3l15.9,14.3
	L39.7,62.4H29.4l12-10.3H10.6C10.6,52.1,10.6,45.3,10.6,45.3z M53.4,14.9v11.6H65C65,26.4,53.4,14.9,53.4,14.9z"/>
</svg>
